<svg xmlns="http://www.w3.org/2000/svg" xmlns:xlink="http://www.w3.org/1999/xlink" width="500" zoomAndPan="magnify" viewBox="0 0 375 374.999991" height="500" preserveAspectRatio="xMidYMid meet" version="1.0"><path fill="#ffffff" d="M 360.925781 123.59375 C 368.792969 103.828125 359.164062 81.199219 339.460938 73.21875 C 319.691406 65.203125 296.953125 74.84375 288.945312 94.640625 L 231.289062 237.402344 L 231.21875 237.574219 C 223.351562 257.335938 232.980469 279.96875 252.679688 287.949219 C 272.453125 295.964844 295.191406 286.324219 303.199219 266.527344 L 360.855469 123.765625 C 360.890625 123.695312 360.925781 123.660156 360.925781 123.59375 Z M 68.320312 254.953125 C 101.683594 313.203125 160.449219 311.097656 190.570312 236.539062 L 236.117188 123.765625 L 236.222656 123.59375 C 244.089844 103.828125 234.429688 81.199219 214.726562 73.21875 C 194.953125 65.203125 172.25 74.84375 164.242188 94.640625 L 155.894531 115.335938 L 125.011719 191.726562 L 115.28125 215.808594 C 108.101562 233.636719 88.640625 241.03125 80.292969 221.128906 L 70.5625 197.945312 C 62.28125 178.113281 63.144531 170.511719 70.804688 151.578125 C 75.152344 140.800781 79.5 129.984375 83.878906 119.203125 C 97.371094 85.761719 63.074219 61.953125 35.296875 73.21875 C 15.59375 81.199219 5.96875 103.828125 13.800781 123.59375 L 13.902344 123.765625 L 47.960938 208.070312 L 59.589844 236.847656 C 62.246094 243.414062 65.144531 249.460938 68.320312 254.953125 Z M 68.320312 254.953125 " fill-opacity="1" fill-rule="evenodd"/></svg>