<svg xmlns="http://www.w3.org/2000/svg" xmlns:xlink="http://www.w3.org/1999/xlink" width="200" zoomAndPan="magnify" viewBox="0 0 150 37.5" height="50" preserveAspectRatio="xMidYMid meet" version="1.0"><defs><clipPath id="d62bb23d5f"><path d="M 96 30 L 98 30 L 98 30.734375 L 96 30.734375 Z M 96 30 " clip-rule="nonzero"/></clipPath><clipPath id="6e6174c77a"><path d="M 92 29 L 97 29 L 97 30.734375 L 92 30.734375 Z M 92 29 " clip-rule="nonzero"/></clipPath><clipPath id="2789629202"><path d="M 6 6.308594 L 144 6.308594 L 144 29 L 6 29 Z M 6 6.308594 " clip-rule="nonzero"/></clipPath><clipPath id="e676eec1d3"><path d="M 70 6.308594 L 71 6.308594 L 71 8 L 70 8 Z M 70 6.308594 " clip-rule="nonzero"/></clipPath></defs><g clip-path="url(#d62bb23d5f)"><path fill="#bfc0c0" d="M 96.632812 30.390625 L 96.195312 30.546875 L 96.941406 30.734375 C 97.160156 30.734375 97.128906 30.546875 96.632812 30.390625 Z M 96.632812 30.390625 " fill-opacity="1" fill-rule="nonzero"/></g><g clip-path="url(#6e6174c77a)"><path fill="#bfc0c0" d="M 94.015625 29.050781 C 93.425781 28.988281 92.707031 28.988281 92.957031 29.363281 C 93.613281 29.300781 93.675781 29.457031 94.390625 29.363281 C 94.855469 29.519531 95.167969 29.765625 95.042969 29.828125 C 95.230469 29.828125 95.761719 30.171875 96.070312 30.078125 C 95.542969 29.640625 94.765625 29.332031 93.921875 29.207031 C 93.765625 29.113281 93.953125 29.082031 94.015625 29.050781 Z M 94.015625 29.050781 " fill-opacity="1" fill-rule="nonzero"/></g><path fill="#bfc0c0" d="M 46.878906 18.175781 C 46.785156 18.148438 46.691406 18.148438 46.566406 18.117188 Z M 46.878906 18.175781 " fill-opacity="1" fill-rule="nonzero"/><path fill="#bfc0c0" d="M 46.566406 18.117188 L 45.757812 17.960938 C 45.726562 18.054688 46.191406 18.085938 46.566406 18.117188 Z M 46.566406 18.117188 " fill-opacity="1" fill-rule="nonzero"/><path fill="#bfc0c0" d="M 87.445312 27.492188 C 87.601562 27.523438 87.757812 27.554688 87.882812 27.554688 C 87.757812 27.523438 87.632812 27.492188 87.476562 27.460938 C 87.476562 27.492188 87.476562 27.492188 87.445312 27.492188 Z M 87.445312 27.492188 " fill-opacity="1" fill-rule="nonzero"/><path fill="#bfc0c0" d="M 59.859375 19.453125 L 60.109375 19.484375 C 60.171875 19.453125 60.265625 19.425781 60.328125 19.394531 Z M 59.859375 19.453125 " fill-opacity="1" fill-rule="nonzero"/><path fill="#bfc0c0" d="M 69.511719 21.542969 C 69.667969 21.480469 69.855469 21.449219 70.042969 21.480469 C 70.042969 21.449219 70.042969 21.386719 69.980469 21.292969 C 69.730469 21.230469 69.605469 21.449219 69.511719 21.542969 Z M 69.511719 21.542969 " fill-opacity="1" fill-rule="nonzero"/><path fill="#bfc0c0" d="M 85.578125 25.871094 L 85.859375 25.933594 C 85.796875 25.902344 85.671875 25.871094 85.578125 25.871094 Z M 85.578125 25.871094 " fill-opacity="1" fill-rule="nonzero"/><path fill="#bfc0c0" d="M 52.511719 18.332031 C 52.511719 18.363281 52.542969 18.394531 52.605469 18.425781 C 52.574219 18.363281 52.542969 18.332031 52.511719 18.332031 Z M 52.511719 18.332031 " fill-opacity="1" fill-rule="nonzero"/><path fill="#bfc0c0" d="M 18.730469 11.386719 C 18.730469 11.355469 18.730469 11.355469 18.730469 11.355469 C 18.667969 11.355469 18.636719 11.386719 18.730469 11.386719 Z M 18.730469 11.386719 " fill-opacity="1" fill-rule="nonzero"/><path fill="#bfc0c0" d="M 6.835938 11.199219 L 6.992188 11.167969 C 6.992188 11.105469 7.023438 11.074219 7.023438 11.011719 Z M 6.835938 11.199219 " fill-opacity="1" fill-rule="nonzero"/><path fill="#bfc0c0" d="M 34.050781 15.933594 C 34.019531 15.933594 34.019531 15.933594 34.019531 15.933594 C 33.769531 15.996094 33.925781 15.964844 34.050781 15.933594 Z M 34.050781 15.933594 " fill-opacity="1" fill-rule="nonzero"/><path fill="#bfc0c0" d="M 120.449219 13.691406 C 119.453125 13.503906 122.039062 13.316406 120.542969 13.160156 C 120.699219 13.253906 119.234375 13.597656 120.449219 13.691406 Z M 120.449219 13.691406 " fill-opacity="1" fill-rule="nonzero"/><path fill="#bfc0c0" d="M 87.199219 27.398438 C 87.074219 27.367188 86.917969 27.304688 86.792969 27.273438 C 86.980469 27.335938 87.105469 27.367188 87.199219 27.398438 Z M 87.199219 27.398438 " fill-opacity="1" fill-rule="nonzero"/><path fill="#bfc0c0" d="M 55.535156 13.566406 C 55.503906 13.535156 55.410156 13.503906 55.316406 13.472656 C 55.316406 13.503906 55.378906 13.535156 55.535156 13.566406 Z M 55.535156 13.566406 " fill-opacity="1" fill-rule="nonzero"/><path fill="#bfc0c0" d="M 39.4375 14.59375 L 39.839844 14.5625 C 39.683594 14.59375 39.5625 14.59375 39.4375 14.59375 Z M 39.4375 14.59375 " fill-opacity="1" fill-rule="nonzero"/><path fill="#bfc0c0" d="M 64.09375 13.007812 C 64.035156 13.007812 64.003906 13.007812 63.910156 12.976562 C 63.972656 13.007812 64.035156 13.007812 64.09375 13.007812 Z M 64.09375 13.007812 " fill-opacity="1" fill-rule="nonzero"/><path fill="#bfc0c0" d="M 64.09375 13.007812 C 64.21875 13.007812 64.3125 13.039062 64.5 13.007812 C 64.46875 13.007812 64.4375 12.976562 64.40625 12.976562 C 64.34375 12.976562 64.25 13.007812 64.09375 13.007812 Z M 64.09375 13.007812 " fill-opacity="1" fill-rule="nonzero"/><path fill="#bfc0c0" d="M 72.65625 12.976562 C 72.625 12.945312 72.5625 12.945312 72.503906 12.914062 C 72.410156 12.914062 72.316406 12.914062 72.222656 12.914062 Z M 72.65625 12.976562 " fill-opacity="1" fill-rule="nonzero"/><path fill="#bfc0c0" d="M 45.257812 9.546875 C 45.070312 9.484375 44.949219 9.421875 44.855469 9.332031 C 44.976562 9.515625 43.703125 9.640625 45.257812 9.546875 Z M 45.257812 9.546875 " fill-opacity="1" fill-rule="nonzero"/><path fill="#bfc0c0" d="M 87.476562 27.367188 C 87.414062 27.398438 87.324219 27.429688 87.199219 27.398438 C 87.292969 27.429688 87.382812 27.460938 87.476562 27.460938 C 87.507812 27.429688 87.539062 27.398438 87.476562 27.367188 Z M 87.476562 27.367188 " fill-opacity="1" fill-rule="nonzero"/><path fill="#bfc0c0" d="M 64.25 11.011719 L 65.652344 11.042969 C 65.246094 11.011719 64.75 11.011719 64.25 11.011719 Z M 64.25 11.011719 " fill-opacity="1" fill-rule="nonzero"/><path fill="#bfc0c0" d="M 107.996094 9.238281 L 107.683594 9.269531 C 107.808594 9.269531 107.902344 9.238281 107.996094 9.238281 Z M 107.996094 9.238281 " fill-opacity="1" fill-rule="nonzero"/><path fill="#bfc0c0" d="M 69.792969 10.980469 C 70.042969 11.074219 70.292969 11.136719 70.570312 11.167969 C 70.632812 11.136719 70.695312 11.136719 70.726562 11.105469 Z M 69.792969 10.980469 " fill-opacity="1" fill-rule="nonzero"/><path fill="#bfc0c0" d="M 33.519531 15.902344 C 33.394531 15.933594 33.273438 15.964844 33.179688 15.996094 C 33.304688 15.964844 33.425781 15.933594 33.519531 15.902344 Z M 33.519531 15.902344 " fill-opacity="1" fill-rule="nonzero"/><path fill="#bfc0c0" d="M 39.902344 14.4375 C 39.996094 14.40625 40.089844 14.378906 40.214844 14.347656 C 40.027344 14.378906 39.714844 14.40625 39.902344 14.4375 Z M 39.902344 14.4375 " fill-opacity="1" fill-rule="nonzero"/><path fill="#bfc0c0" d="M 30.128906 14.625 C 30.15625 14.625 30.21875 14.59375 30.25 14.59375 C 30.1875 14.625 30.15625 14.625 30.128906 14.625 Z M 30.128906 14.625 " fill-opacity="1" fill-rule="nonzero"/><path fill="#bfc0c0" d="M 112.324219 9.515625 C 112.261719 9.515625 112.199219 9.515625 112.136719 9.546875 C 112.199219 9.546875 112.261719 9.515625 112.324219 9.515625 Z M 112.324219 9.515625 " fill-opacity="1" fill-rule="nonzero"/><path fill="#bfc0c0" d="M 76.175781 11.042969 C 76.238281 11.042969 76.300781 11.042969 76.363281 11.011719 C 76.300781 11.042969 76.238281 11.042969 76.175781 11.042969 Z M 76.175781 11.042969 " fill-opacity="1" fill-rule="nonzero"/><path fill="#bfc0c0" d="M 91.960938 28.519531 C 91.929688 28.488281 91.898438 28.457031 91.804688 28.457031 Z M 91.960938 28.519531 " fill-opacity="1" fill-rule="nonzero"/><g clip-path="url(#2789629202)"><path fill="#bfc0c0" d="M 143.800781 11.542969 L 143.707031 9.300781 C 141.464844 9.050781 140.097656 9.421875 138.105469 9.332031 C 138.136719 8.957031 136.113281 8.644531 135.082031 8.519531 L 135.113281 8.457031 C 132.09375 8.207031 129.945312 8.425781 127.144531 8.394531 C 125.433594 7.867188 121.261719 7.867188 118.488281 7.460938 C 118.925781 7.554688 118.394531 7.773438 117.898438 7.773438 C 117.242188 7.648438 116.058594 7.960938 116.183594 7.617188 L 116.433594 7.648438 C 115.96875 7.273438 114.597656 7.304688 113.539062 7.242188 L 113.382812 7.679688 C 112.011719 7.273438 110.207031 7.242188 108.558594 7.273438 C 106.90625 7.273438 105.410156 7.304688 104.664062 6.992188 C 104.011719 7.085938 103.171875 7.054688 102.515625 7.148438 L 102.546875 6.898438 C 100.710938 6.777344 99.777344 6.714844 97.503906 6.746094 L 97.96875 6.589844 C 96.695312 6.558594 96.320312 7.273438 95.136719 7.273438 L 94.792969 6.898438 C 92.554688 6.835938 90.28125 6.496094 88.070312 6.808594 C 88.101562 6.746094 88.164062 6.652344 88.535156 6.621094 C 87.476562 6.589844 84.457031 6.308594 84.832031 6.835938 C 84.800781 6.496094 82.527344 6.777344 81.3125 6.929688 L 81.5 6.683594 C 80.472656 6.992188 80.441406 7.085938 79.007812 7.179688 C 78.667969 7.148438 78.699219 6.992188 79.164062 7.054688 C 78.042969 6.929688 78.292969 7.304688 76.921875 7.148438 L 77.421875 6.992188 C 76.269531 6.960938 76.363281 7.054688 75.710938 7.242188 C 74.992188 7.335938 73.5 7.210938 73.34375 6.992188 C 73.1875 7.117188 72.5625 7.335938 71.878906 7.273438 C 71.785156 7.179688 72.035156 7.148438 72.160156 7.117188 C 70.230469 6.960938 69.296875 7.429688 67.957031 7.210938 C 67.925781 7.117188 67.832031 7.085938 67.738281 7.054688 C 69.140625 7.054688 70.324219 7.054688 70.414062 7.054688 C 70.386719 6.835938 69.171875 6.808594 70.167969 6.496094 C 69.171875 6.683594 67.457031 7.054688 66.242188 6.992188 C 66.179688 6.960938 66.121094 6.960938 66.089844 6.929688 L 66.210938 6.898438 C 65.933594 6.867188 65.683594 6.898438 65.433594 6.960938 C 65.0625 6.929688 64.8125 6.898438 64.4375 6.929688 C 64.28125 6.746094 63.003906 6.867188 62.382812 6.867188 C 62.445312 7.117188 61.636719 7.085938 62.382812 7.273438 C 62.289062 7.242188 62.507812 7.242188 62.914062 7.210938 C 63.003906 7.210938 63.128906 7.179688 63.160156 7.179688 C 63.160156 7.179688 63.128906 7.179688 63.128906 7.210938 C 63.535156 7.210938 64.0625 7.179688 64.65625 7.148438 C 64.15625 7.273438 63.660156 7.398438 62.976562 7.273438 C 62.664062 7.429688 62.320312 7.617188 62.132812 7.710938 C 61.292969 7.367188 59.644531 7.242188 59.394531 7.023438 C 57.527344 7.117188 54.972656 7.179688 53.789062 7.679688 C 53.261719 7.773438 53.167969 7.554688 52.949219 7.492188 C 53.261719 7.429688 53.632812 7.429688 53.789062 7.367188 C 52.730469 7.523438 50.613281 7.523438 50.363281 7.867188 C 48.996094 7.773438 51.113281 7.523438 49.242188 7.648438 L 49.492188 7.523438 C 45.820312 7.179688 43.578125 8.613281 39.5 8.175781 C 39.777344 8.207031 39.933594 8.207031 39.996094 8.269531 C 37.660156 8.269531 35.296875 8.457031 32.929688 8.644531 C 30.5625 8.832031 28.195312 9.050781 25.894531 8.957031 C 24.585938 8.957031 24.460938 9.175781 23.683594 9.390625 L 23.371094 9.144531 L 22.03125 9.546875 C 20.132812 9.921875 18.667969 9.175781 16.273438 9.796875 L 16.613281 9.953125 C 15.742188 9.984375 13.875 10.296875 14 10.078125 C 13.90625 10.109375 13.71875 10.296875 13.375 10.234375 L 13.34375 10.109375 L 11.226562 10.546875 C 9.546875 10.609375 11.445312 9.953125 9.015625 10.171875 C 8.113281 10.296875 6.496094 10.824219 6.835938 10.886719 C 7.210938 10.855469 7.773438 10.886719 7.804688 11.011719 L 6.992188 11.167969 C 6.898438 11.605469 6.308594 12.070312 8.332031 12.164062 L 9.703125 11.792969 L 10.167969 11.945312 L 8.984375 12.070312 C 9.671875 12.195312 10.074219 11.976562 10.542969 11.824219 C 10.667969 11.914062 10.855469 11.976562 11.164062 11.976562 L 12.503906 11.449219 C 12.691406 11.605469 11.914062 11.824219 12.847656 11.824219 C 13.46875 11.574219 12.191406 11.511719 13.25 11.292969 C 13.9375 11.417969 13.75 11.574219 14.527344 11.355469 C 14.652344 11.449219 14.496094 11.542969 14.1875 11.605469 C 14.871094 11.417969 16.054688 11.386719 16.394531 11.136719 C 17.113281 11.324219 18.761719 10.886719 18.730469 11.292969 C 18.949219 11.167969 19.945312 10.886719 20.597656 10.824219 C 19.449219 11.386719 23.027344 10.667969 22.746094 11.167969 C 23.589844 10.667969 25.894531 10.730469 27.417969 10.421875 C 27.324219 10.484375 27.136719 10.578125 27.011719 10.546875 C 27.886719 10.515625 28.132812 10.636719 28.726562 10.667969 C 28.820312 10.328125 30.15625 10.140625 30.875 9.859375 C 31.964844 10.109375 30.25 10.328125 30.59375 10.609375 C 30.53125 10.328125 32.429688 10.203125 32.058594 9.984375 C 32.898438 10.140625 32.773438 10.046875 33.210938 10.296875 C 33.332031 9.859375 33.957031 10.171875 34.640625 9.859375 C 35.824219 10.015625 34.984375 10.234375 36.261719 10.046875 C 36.882812 10.140625 35.730469 10.359375 35.730469 10.359375 C 37.039062 10.296875 36.324219 10.015625 36.601562 9.796875 C 38.191406 9.609375 37.351562 9.984375 37.878906 10.140625 C 38.84375 9.984375 39.59375 9.640625 40.339844 9.609375 C 40.402344 9.671875 40.527344 9.671875 40.371094 9.734375 C 41.398438 9.421875 43.453125 9.578125 44.667969 9.175781 C 44.761719 9.207031 44.792969 9.238281 44.824219 9.238281 C 44.605469 9.082031 44.574219 8.925781 44.605469 8.800781 C 45.195312 8.769531 45.695312 8.550781 45.945312 8.738281 C 45.570312 8.738281 45.539062 8.832031 45.382812 8.925781 L 46.007812 8.800781 C 46.566406 9.082031 45.164062 8.957031 45.164062 9.175781 C 46.378906 9.019531 47.78125 8.707031 48.714844 8.738281 C 48.933594 9.019531 46.535156 8.957031 47.8125 9.144531 L 46.378906 9.082031 C 47.5 9.515625 45.507812 9.082031 46.535156 9.546875 C 48.433594 9.546875 48.652344 9.300781 50.519531 9.300781 C 50.925781 9.113281 50.363281 9.050781 50.800781 8.863281 C 53.476562 8.457031 52.949219 9.546875 54.910156 9.082031 C 55.410156 8.863281 55.59375 8.488281 56.996094 8.613281 L 56.53125 8.957031 C 58.367188 8.925781 57.558594 8.425781 59.488281 8.613281 C 59.144531 8.769531 58.054688 8.769531 58.335938 8.800781 C 59.582031 9.050781 59.207031 8.582031 60.171875 8.550781 L 60.390625 8.863281 C 62.351562 8.769531 64.46875 8.488281 66.648438 8.394531 C 66.523438 8.488281 66.152344 8.582031 66.679688 8.675781 C 69.355469 8.613281 72.441406 8.769531 75.085938 8.925781 L 76.082031 8.675781 C 76.332031 8.675781 76.519531 8.800781 76.269531 8.832031 C 77.296875 8.925781 76.332031 8.675781 76.796875 8.550781 C 77.390625 8.519531 77.578125 8.707031 77.203125 8.769531 C 79.007812 8.550781 82.339844 8.269531 84.269531 8.582031 L 83.898438 8.644531 C 85.390625 8.769531 85.578125 8.113281 86.949219 8.394531 L 86.699219 8.425781 C 88.320312 8.488281 90 8.488281 91.617188 8.519531 C 93.207031 8.550781 94.734375 8.613281 95.945312 8.863281 C 96.414062 8.488281 99.121094 9.113281 99.339844 8.582031 C 101.175781 8.894531 100.648438 8.957031 103.234375 9.238281 C 103.917969 9.300781 104.261719 8.957031 105.132812 8.925781 L 105.132812 9.207031 L 106.316406 8.957031 L 106.90625 9.300781 L 107.714844 9.269531 C 107.40625 9.238281 107.03125 9.113281 107.09375 9.050781 C 108.339844 8.957031 110.144531 9.359375 110.175781 9.484375 L 113.132812 9.390625 C 113.070312 9.484375 112.792969 9.515625 112.480469 9.546875 C 113.601562 9.453125 112.574219 9.859375 113.910156 9.703125 C 113.726562 9.640625 114.035156 9.546875 114.066406 9.484375 C 114.785156 9.671875 116.433594 9.765625 117.648438 9.734375 L 117.398438 9.921875 C 119.578125 10.078125 122.039062 10.078125 124.496094 10.234375 C 123.625 10.109375 123.84375 9.765625 124.558594 9.796875 L 124.839844 10.109375 C 125.308594 9.953125 124.09375 9.953125 125.058594 9.796875 C 125.960938 9.890625 125.648438 10.171875 125.121094 10.234375 L 126.242188 10.203125 C 126.304688 10.296875 126.023438 10.328125 125.960938 10.421875 C 126.429688 10.265625 127.859375 10.824219 128.546875 10.578125 L 128.609375 10.667969 C 129.976562 10.761719 130.941406 10.792969 131.847656 10.824219 C 131.785156 10.824219 131.691406 10.824219 131.628906 10.824219 C 130.878906 10.855469 130.195312 10.949219 129.605469 11.105469 L 129.730469 11.074219 C 128.917969 11.230469 128.078125 11.386719 127.269531 11.511719 C 126.117188 11.542969 127.953125 11.292969 127.082031 11.199219 C 125.742188 11.480469 124.683594 11.542969 123.6875 11.542969 C 122.691406 11.542969 121.726562 11.542969 120.636719 11.730469 C 119.765625 11.449219 118.238281 11.480469 116.652344 11.574219 C 115.0625 11.667969 113.382812 11.730469 112.230469 11.542969 L 112.355469 11.699219 C 111.761719 11.855469 111.640625 11.605469 111.203125 11.574219 C 111.265625 11.699219 111.855469 11.699219 111.484375 11.792969 C 106.410156 12.007812 100.992188 11.542969 95.792969 11.261719 C 93.890625 11.167969 94.703125 12.039062 92.304688 11.636719 L 92.988281 11.355469 C 89.128906 11.605469 85.113281 11.136719 81.34375 11.355469 C 81.5625 11.292969 81.59375 11.199219 81.9375 11.199219 C 81.15625 10.980469 78.976562 11.136719 78.976562 11.292969 C 78.386719 11.261719 78.855469 11.136719 78.480469 11.042969 C 77.671875 10.917969 76.457031 11.292969 76.050781 11.074219 C 75.988281 11.042969 76.113281 11.042969 76.238281 11.011719 C 75.554688 11.074219 74.027344 10.949219 74.496094 11.199219 C 73.0625 11.074219 71.785156 11.292969 70.632812 11.136719 C 69.886719 11.417969 68.207031 10.980469 67.957031 11.386719 C 68.050781 10.980469 65.464844 11.074219 64.5625 11.261719 C 64.875 11.136719 63.785156 11.136719 64.125 10.980469 C 63.097656 11.011719 62.164062 11.105469 62.351562 11.292969 C 60.453125 10.824219 58.585938 11.792969 57.496094 11.199219 C 54.476562 11.542969 51.640625 11.824219 48.933594 12.132812 C 48.996094 11.730469 51.953125 11.882812 51.796875 11.480469 C 50.488281 11.667969 49.492188 11.855469 48.464844 12.007812 C 47.4375 12.195312 46.441406 12.351562 45.164062 12.414062 C 44.480469 12.414062 45.539062 12.195312 45.757812 12.132812 C 43.171875 12.539062 40.742188 12.601562 38.472656 13.160156 C 38.472656 13.132812 38.71875 13.039062 38.9375 12.976562 C 38.503906 13.039062 37.878906 13.070312 37.941406 13.222656 L 38.378906 13.132812 C 39.125 13.285156 36.664062 13.910156 36.601562 14.066406 C 37.289062 13.410156 34.332031 14.316406 35.449219 13.441406 C 35.171875 13.535156 34.796875 13.660156 34.890625 13.785156 C 34.453125 13.816406 34.300781 13.785156 34.703125 13.566406 C 33.117188 13.941406 33.707031 14.003906 32.246094 14.285156 C 32.246094 14.191406 32.523438 14.097656 32.648438 13.972656 C 31.933594 14.285156 31.246094 14.59375 30.003906 14.75 C 30.066406 14.6875 29.972656 14.65625 30.15625 14.59375 C 29.160156 14.8125 28.320312 15.09375 27.480469 15.375 C 26.578125 15.683594 25.644531 15.933594 24.492188 16.152344 C 25.082031 15.625 23.683594 16.214844 23.496094 15.933594 L 22.21875 16.402344 L 22.746094 16.433594 C 21.65625 16.683594 20.785156 17.210938 19.851562 17.367188 L 20.597656 16.992188 L 18.636719 17.648438 L 19.632812 17.460938 C 19.199219 17.617188 18.855469 17.804688 17.984375 17.835938 L 17.984375 17.960938 C 17.953125 17.960938 17.890625 17.992188 17.859375 17.992188 L 18.046875 18.988281 C 18.078125 18.988281 18.140625 18.988281 18.171875 18.957031 L 18.203125 19.082031 C 18.265625 19.082031 18.328125 19.050781 18.390625 19.050781 C 18.328125 19.050781 18.265625 19.019531 18.203125 18.957031 C 18.234375 18.957031 18.296875 18.957031 18.328125 18.925781 C 18.296875 18.925781 18.234375 18.925781 18.171875 18.925781 C 18.140625 18.863281 18.140625 18.800781 18.296875 18.675781 C 18.574219 18.675781 18.824219 18.707031 19.042969 18.769531 C 19.199219 18.738281 19.355469 18.707031 19.511719 18.644531 C 19.480469 18.644531 19.480469 18.675781 19.480469 18.675781 C 19.539062 18.644531 19.570312 18.644531 19.632812 18.613281 C 19.757812 18.582031 19.882812 18.550781 20.039062 18.550781 C 20.007812 18.582031 19.945312 18.613281 19.882812 18.613281 C 19.601562 18.707031 19.480469 18.707031 19.480469 18.675781 C 19.136719 18.832031 18.667969 18.988281 19.136719 18.988281 L 19.261719 18.832031 C 19.695312 18.800781 20.660156 18.519531 20.972656 18.488281 C 21.160156 18.582031 20.816406 18.863281 20.941406 18.925781 C 21.472656 18.613281 23.496094 18.675781 24.179688 18.363281 C 23.960938 18.425781 23.960938 18.613281 24.023438 18.644531 L 24.460938 18.394531 C 24.957031 18.457031 25.050781 18.488281 24.957031 18.613281 C 26.484375 18.613281 24.460938 18.207031 26.296875 18.332031 C 26.140625 18.363281 26.234375 18.394531 25.921875 18.425781 C 26.828125 18.457031 27.730469 18.363281 28.570312 18.332031 C 29.441406 18.300781 30.28125 18.238281 31.125 18.300781 C 31.621094 18.644531 29.660156 18.394531 30.21875 18.675781 C 31.433594 18.644531 32.679688 18.488281 33.925781 18.457031 C 35.171875 18.394531 36.417969 18.363281 37.566406 18.425781 L 37.132812 18.394531 C 37.289062 18.179688 37.722656 18.238281 38.285156 18.332031 C 38.8125 18.457031 39.46875 18.613281 40.058594 18.519531 C 39.777344 18.550781 39.65625 18.769531 39.746094 18.707031 C 41.335938 18.863281 43.015625 18.738281 45.476562 18.800781 L 45.164062 18.894531 C 46.097656 19.082031 47.65625 19.144531 48.652344 19.300781 C 48.964844 19.207031 49.554688 19.300781 49.210938 19.082031 C 50.738281 19.609375 52.265625 19.640625 53.695312 19.703125 C 55.160156 19.796875 56.59375 19.859375 57.929688 20.328125 C 57.589844 20.296875 57.121094 20.328125 57.402344 20.359375 C 58.179688 20.421875 58.988281 20.515625 59.769531 20.609375 C 59.613281 20.390625 59.488281 20.421875 59.019531 20.203125 C 59.332031 20.140625 60.015625 20.140625 60.609375 20.234375 C 59.519531 20.203125 60.578125 20.546875 61.011719 20.730469 C 60.949219 20.671875 61.105469 20.609375 61.074219 20.546875 C 62.257812 21.105469 61.355469 20.171875 62.976562 20.699219 L 62.882812 20.792969 C 63.503906 20.855469 64.125 20.824219 64.78125 20.980469 C 65.03125 21.261719 64.09375 20.949219 64.003906 21.136719 C 64.9375 21.292969 65.964844 21.042969 66.773438 21.449219 C 66.367188 21.449219 65.777344 21.324219 65.371094 21.324219 C 66.242188 21.792969 66.367188 21.730469 67.054688 21.917969 L 66.992188 21.886719 C 67.519531 22.039062 68.050781 22.164062 68.546875 22.320312 L 68.144531 22.164062 C 69.449219 21.824219 70.570312 22.570312 72.253906 22.539062 C 70.632812 22.570312 71.941406 22.695312 71.753906 22.945312 C 72.128906 23.101562 72.75 23.316406 72.53125 23.347656 C 73.34375 23.316406 73.746094 23.816406 74.867188 23.785156 C 74.898438 23.878906 75.648438 24.003906 75.429688 24.160156 C 76.425781 24.347656 75.242188 23.941406 75.335938 23.878906 C 76.113281 23.910156 76.984375 24.222656 77.917969 24.53125 C 78.855469 24.875 79.851562 25.21875 80.972656 25.3125 C 82.871094 25.65625 83.273438 25.5 85.019531 25.871094 C 85.546875 26.183594 84.457031 26.027344 84.457031 26.027344 C 85.328125 26.433594 86.046875 26.621094 86.949219 26.808594 C 86.761719 26.839844 86.917969 26.933594 87.136719 27.117188 C 87.851562 27.304688 87.695312 26.964844 88.566406 27.398438 C 88.382812 27.429688 88.132812 27.523438 87.757812 27.492188 C 88.597656 27.679688 89.441406 27.804688 90.3125 28.023438 C 90.5 28.242188 89.71875 28.054688 89.410156 28.054688 C 90.375 28.300781 91.898438 28.769531 92.273438 28.644531 L 91.835938 28.425781 C 91.929688 28.519531 91.742188 28.613281 91.527344 28.550781 C 90.652344 28.457031 90.375 28.085938 90.375 27.960938 L 90.996094 28.117188 C 90.558594 27.429688 88.566406 27.367188 87.355469 26.933594 L 87.976562 26.746094 C 87.539062 26.683594 87.074219 26.683594 86.636719 26.621094 C 86.386719 26.433594 86.296875 26.183594 86.886719 26.339844 C 86.078125 25.902344 86.078125 26.214844 85.390625 25.808594 C 85.328125 25.746094 85.359375 25.746094 85.453125 25.746094 L 84.550781 25.59375 C 84.738281 25.5625 84.488281 25.3125 84.988281 25.5 C 83.523438 24.8125 82.433594 25 81.9375 24.5625 L 82.0625 24.5625 C 79.882812 24.097656 81.78125 24.75 80.066406 24.625 L 79.164062 23.691406 L 78.886719 23.878906 C 78.667969 23.816406 78.230469 23.660156 78.355469 23.566406 C 77.484375 23.503906 78.480469 23.722656 77.949219 23.753906 C 76.921875 23.253906 74.960938 23.132812 74.835938 22.632812 C 74.402344 22.726562 75.832031 23.039062 74.652344 22.882812 C 74.433594 22.351562 73.3125 22.601562 72.378906 22.195312 C 72.71875 22.039062 73.652344 22.351562 72.6875 21.949219 C 72.003906 22.195312 70.789062 21.449219 69.917969 21.324219 C 69.824219 21.636719 68.082031 21.042969 66.648438 20.886719 C 66.773438 20.792969 64.035156 20.203125 62.726562 19.859375 L 62.789062 19.796875 C 62.476562 20.078125 61.136719 19.796875 60.140625 19.703125 C 60.203125 19.515625 60.390625 19.484375 60.949219 19.484375 L 60.015625 19.332031 C 59.769531 19.394531 59.488281 19.394531 58.863281 19.332031 L 59.144531 19.113281 C 57.898438 18.925781 56.59375 19.050781 55.035156 18.675781 C 54.910156 18.894531 56.21875 19.484375 54.507812 19.394531 C 54.445312 19.269531 54.414062 19.050781 54.878906 19.050781 C 54.722656 19.050781 54.351562 19.082031 54.070312 18.988281 L 54.785156 18.863281 C 54.070312 18.675781 54.382812 18.988281 53.789062 18.894531 C 53.820312 18.707031 53.386719 18.707031 53.476562 18.582031 C 53.632812 18.582031 53.976562 18.707031 54.195312 18.675781 C 53.539062 18.550781 52.761719 18.363281 52.511719 18.207031 C 52.542969 18.300781 52.480469 18.457031 52.015625 18.425781 C 50.769531 18.300781 51.609375 18.175781 50.894531 17.992188 C 50.582031 18.085938 49.804688 17.867188 49.742188 18.117188 C 49.367188 18.085938 49.304688 17.960938 49.183594 17.867188 C 48.527344 17.898438 46.160156 17.648438 46.847656 17.960938 L 47.003906 17.992188 C 46.972656 17.992188 46.941406 17.992188 46.910156 17.992188 C 45.851562 18.054688 44.730469 17.929688 43.640625 17.773438 C 42.550781 17.648438 41.460938 17.523438 40.402344 17.523438 L 40.402344 17.429688 C 39.777344 17.460938 39.0625 17.429688 38.410156 17.429688 C 37.753906 17.429688 37.132812 17.460938 36.695312 17.554688 C 36.324219 17.554688 35.824219 17.367188 35.980469 17.273438 C 35.015625 17.304688 34.921875 17.429688 33.519531 17.242188 C 34.484375 17.117188 33.179688 17.085938 34.515625 17.148438 C 33.273438 17.054688 32.992188 16.902344 31.621094 17.148438 C 32.089844 16.929688 30.6875 16.871094 30.097656 16.929688 L 31.0625 17.335938 C 30.375 17.367188 29.816406 17.367188 29.222656 17.335938 L 29.535156 17.023438 C 28.257812 16.839844 27.074219 17.054688 26.015625 17.210938 C 25.519531 17.273438 25.050781 17.335938 24.585938 17.367188 C 26.359375 16.992188 25.269531 16.960938 26.671875 16.589844 C 27.574219 16.558594 26.453125 17.023438 27.917969 16.558594 C 28.851562 16.464844 28.164062 16.777344 27.824219 16.960938 C 28.476562 16.714844 29.128906 16.589844 29.722656 16.527344 C 30.3125 16.496094 30.8125 16.464844 31.214844 16.433594 L 30.5 16.652344 C 30.9375 16.527344 31.277344 16.464844 31.652344 16.371094 L 31.1875 16.246094 C 31.621094 16.214844 31.996094 16.121094 31.996094 16.214844 C 32.398438 15.996094 31.589844 15.933594 32.429688 15.59375 C 33.023438 15.59375 34.144531 15.15625 34.390625 15.40625 C 32.773438 15.59375 34.238281 15.625 33.488281 15.871094 C 33.707031 15.839844 33.957031 15.808594 34.207031 15.777344 C 34.269531 15.808594 34.144531 15.839844 34.050781 15.871094 C 35.824219 15.839844 34.796875 15.4375 36.570312 15.15625 C 36.355469 15.34375 37.039062 15.375 37.320312 15.3125 C 36.601562 15.4375 36.945312 15.09375 37.566406 14.875 C 38.75 14.84375 38.8125 14.625 39.40625 14.5625 L 38.71875 14.59375 C 38.9375 14.40625 39.5 14.347656 40.308594 14.191406 C 40.339844 14.222656 40.277344 14.253906 40.214844 14.285156 C 41.023438 14.097656 42.082031 14.378906 43.140625 14.128906 C 43.734375 14.160156 43.234375 14.40625 43.734375 14.4375 C 45.101562 14.066406 45.257812 14.5 46.722656 14.191406 C 46.285156 14.003906 46.222656 14.066406 47.21875 13.785156 L 44.824219 14.160156 L 46.347656 13.722656 C 45.632812 13.785156 44.824219 13.972656 44.386719 14.003906 C 45.101562 13.753906 45.039062 13.816406 44.667969 13.660156 C 45.695312 13.878906 46.628906 13.285156 47.8125 13.410156 L 47.8125 13.941406 C 48.683594 13.972656 49.460938 13.847656 50.300781 13.722656 C 51.144531 13.597656 52.046875 13.410156 53.167969 13.441406 L 52.417969 13.378906 C 52.699219 13.160156 53.820312 13.285156 54.535156 13.160156 C 54.476562 13.347656 54.941406 13.378906 55.253906 13.472656 C 55.222656 13.347656 56.902344 13.410156 57.089844 13.070312 L 58.117188 13.253906 C 59.953125 13.285156 60.203125 12.695312 61.945312 12.726562 C 61.417969 12.914062 62.226562 13.039062 61.042969 13.191406 C 61.636719 13.191406 62.164062 13.191406 62.164062 13.101562 C 62.507812 13.191406 63.785156 12.820312 64.34375 12.976562 C 64.59375 12.882812 64.65625 12.726562 65.339844 12.726562 C 65.371094 12.757812 65.371094 12.789062 65.371094 12.789062 C 65.496094 12.726562 66.335938 12.664062 65.808594 12.507812 C 67.613281 13.039062 70.882812 12.445312 72.441406 12.945312 C 73.714844 12.914062 75.273438 12.851562 76.425781 12.851562 C 76.363281 12.914062 76.425781 12.945312 76.207031 12.914062 C 77.828125 13.101562 77.203125 12.414062 79.039062 12.632812 C 79.972656 12.945312 78.074219 12.757812 78.636719 12.882812 C 78.886719 13.472656 80.847656 12.851562 82.0625 13.191406 L 81.75 13.222656 C 82.683594 13.441406 84.054688 13.070312 85.578125 13.132812 C 85.578125 13.132812 85.515625 13.191406 85.578125 13.222656 C 86.636719 12.945312 88.628906 12.914062 90.125 12.851562 C 89.65625 13.070312 89.441406 12.945312 89.71875 13.191406 C 90.375 13.160156 89.53125 12.820312 90.871094 12.789062 C 91.308594 12.914062 92.242188 13.070312 92.367188 13.285156 L 91.121094 13.253906 C 91.742188 13.597656 92.738281 13.285156 93.394531 13.347656 L 93.300781 13.472656 C 95.230469 13.472656 95.261719 13.132812 97.316406 13.191406 L 97.097656 13.101562 C 98.21875 12.789062 98.03125 13.316406 99.152344 13.070312 L 99.496094 13.410156 C 100.242188 13.347656 102.113281 13.101562 103.449219 13.070312 C 102.703125 13.316406 101.148438 13.441406 100.148438 13.566406 C 100.898438 13.566406 102.640625 13.566406 103.046875 13.410156 C 102.734375 13.441406 102.359375 13.535156 102.082031 13.472656 C 102.984375 13.222656 104.167969 13.101562 105.660156 13.101562 C 105.410156 13.785156 109.492188 13.285156 110.550781 13.816406 C 113.132812 13.566406 115.71875 13.878906 118.738281 13.722656 C 117.648438 13.222656 119.609375 13.691406 119.421875 13.132812 C 120.109375 13.070312 120.386719 13.070312 120.449219 13.101562 L 120.292969 13.070312 C 120.355469 13.070312 120.386719 13.070312 120.449219 13.101562 L 122.597656 13.316406 C 123.128906 13.441406 121.945312 13.472656 122.007812 13.597656 C 123.5625 13.566406 122.660156 13.785156 123.6875 13.910156 C 123.46875 13.722656 124.21875 13.597656 125.089844 13.628906 L 123.84375 13.441406 C 125.992188 13.039062 125.742188 13.785156 127.890625 13.347656 L 127.207031 13.566406 C 128.328125 13.410156 131.347656 13.253906 132.375 12.695312 C 132.59375 12.726562 132.84375 12.851562 132.375 12.945312 C 133.714844 12.820312 135.175781 12.601562 136.578125 12.320312 C 137.980469 12.039062 139.289062 11.824219 140.347656 11.792969 L 140.160156 11.945312 C 140.65625 11.824219 140.96875 11.574219 141.621094 11.605469 C 141.589844 11.667969 141.433594 11.761719 141.683594 11.730469 C 141.871094 11.667969 142.464844 11.480469 143.023438 11.355469 C 143.179688 11.355469 143.304688 11.386719 143.398438 11.386719 L 143.117188 11.511719 C 143.429688 11.574219 143.644531 11.542969 143.800781 11.542969 Z M 63.566406 6.867188 C 63.566406 6.867188 63.535156 6.898438 63.503906 6.898438 C 63.535156 6.835938 63.597656 6.808594 63.660156 6.777344 C 64.0625 6.746094 64.21875 6.777344 64.28125 6.835938 C 64.09375 6.835938 63.847656 6.867188 63.566406 6.867188 Z M 65.964844 8.488281 C 66.089844 8.488281 66.273438 8.457031 66.617188 8.457031 C 66.335938 8.457031 66.121094 8.488281 65.964844 8.488281 Z M 68.082031 8.425781 C 67.988281 8.332031 68.082031 8.238281 68.359375 8.238281 C 68.207031 8.300781 68.828125 8.332031 69.234375 8.394531 C 68.890625 8.394531 68.484375 8.394531 68.082031 8.425781 Z M 18.203125 18.957031 C 18.171875 18.957031 18.109375 18.957031 18.078125 18.957031 L 17.890625 18.023438 C 17.921875 18.023438 17.984375 17.992188 18.015625 17.992188 L 18.078125 18.238281 C 18.046875 18.238281 18.015625 18.238281 17.984375 18.269531 L 18.078125 18.707031 C 18.109375 18.707031 18.140625 18.707031 18.171875 18.707031 Z M 135.582031 10.578125 C 135.707031 10.609375 135.863281 10.609375 135.988281 10.636719 C 135.550781 10.667969 135.113281 10.667969 134.679688 10.699219 C 134.960938 10.667969 135.300781 10.667969 135.582031 10.578125 Z M 143.523438 11.386719 C 143.582031 11.386719 143.675781 11.355469 143.738281 11.355469 L 143.523438 11.449219 Z M 143.523438 11.386719 " fill-opacity="1" fill-rule="nonzero"/></g><g clip-path="url(#e676eec1d3)"><path fill="#bfc0c0" d="M 70.414062 6.992188 C 70.414062 7.023438 70.414062 7.023438 70.414062 6.992188 C 70.445312 7.023438 70.445312 7.023438 70.414062 6.992188 Z M 70.414062 6.992188 " fill-opacity="1" fill-rule="nonzero"/></g><path fill="#bfc0c0" d="M 62.945312 7.117188 C 62.882812 7.117188 62.851562 7.148438 62.789062 7.148438 C 62.882812 7.179688 62.945312 7.179688 63.035156 7.210938 C 63.097656 7.179688 63.128906 7.148438 63.191406 7.117188 C 63.066406 7.117188 63.003906 7.117188 62.945312 7.117188 Z M 62.945312 7.117188 " fill-opacity="1" fill-rule="nonzero"/><path fill="#bfc0c0" d="M 46.878906 18.175781 C 46.910156 18.175781 46.972656 18.207031 47.003906 18.207031 C 46.972656 18.207031 46.972656 18.175781 46.941406 18.175781 Z M 46.878906 18.175781 " fill-opacity="1" fill-rule="nonzero"/><path fill="#bfc0c0" d="M 105.101562 9.238281 L 105.101562 9.175781 L 104.882812 9.238281 Z M 105.101562 9.238281 " fill-opacity="1" fill-rule="nonzero"/><path fill="#bfc0c0" d="M 61.042969 20.792969 C 61.074219 20.824219 61.105469 20.855469 61.230469 20.886719 C 61.230469 20.886719 61.136719 20.855469 61.042969 20.792969 Z M 61.042969 20.792969 " fill-opacity="1" fill-rule="nonzero"/><path fill="#bfc0c0" d="M 67.117188 21.976562 L 67.957031 22.226562 C 67.613281 22.101562 67.332031 22.007812 67.117188 21.976562 Z M 67.117188 21.976562 " fill-opacity="1" fill-rule="nonzero"/><path fill="#bfc0c0" d="M 71.722656 23.070312 C 71.785156 23.039062 71.816406 23.007812 71.847656 22.976562 Z M 71.722656 23.070312 " fill-opacity="1" fill-rule="nonzero"/><path fill="#bfc0c0" d="M 38.90625 13.007812 C 38.96875 13.007812 39.03125 12.976562 39.09375 12.976562 C 39.5 12.851562 39.21875 12.914062 38.90625 13.007812 Z M 38.90625 13.007812 " fill-opacity="1" fill-rule="nonzero"/><path fill="#bfc0c0" d="M 19.074219 18.800781 C 18.824219 18.863281 18.605469 18.925781 18.359375 18.957031 C 18.761719 18.957031 19.074219 18.925781 19.074219 18.800781 Z M 19.074219 18.800781 " fill-opacity="1" fill-rule="nonzero"/><path fill="#bfc0c0" d="M 91.648438 28.988281 C 91.648438 28.957031 91.679688 28.957031 91.679688 28.957031 L 91.433594 28.894531 Z M 91.648438 28.988281 " fill-opacity="1" fill-rule="nonzero"/><path fill="#bfc0c0" d="M 91.929688 29.019531 C 91.804688 28.988281 91.710938 28.957031 91.679688 28.957031 Z M 91.929688 29.019531 " fill-opacity="1" fill-rule="nonzero"/><path fill="#bfc0c0" d="M 92.460938 29.113281 C 92.273438 29.082031 92.117188 29.019531 91.929688 28.988281 C 92.117188 29.050781 92.335938 29.144531 92.460938 29.113281 Z M 92.460938 29.113281 " fill-opacity="1" fill-rule="nonzero"/><path fill="#bfc0c0" d="M 85.515625 26.808594 L 85.421875 26.871094 C 85.453125 26.871094 85.484375 26.839844 85.515625 26.808594 Z M 85.515625 26.808594 " fill-opacity="1" fill-rule="nonzero"/><path fill="#bfc0c0" d="M 85.359375 26.933594 L 85.453125 26.871094 C 85.144531 26.902344 84.179688 26.246094 83.710938 26.277344 C 84.117188 26.433594 84.738281 26.777344 85.359375 26.933594 Z M 85.359375 26.933594 " fill-opacity="1" fill-rule="nonzero"/><path fill="#bfc0c0" d="M 77.980469 23.285156 C 76.082031 22.507812 78.324219 23.597656 76.300781 23.039062 L 77.855469 23.503906 C 77.578125 23.347656 77.265625 23.132812 77.980469 23.285156 Z M 77.980469 23.285156 " fill-opacity="1" fill-rule="nonzero"/><path fill="#bfc0c0" d="M 71.472656 21.761719 C 72.316406 21.917969 71.503906 21.636719 71.535156 21.574219 C 70.976562 21.542969 70.851562 21.542969 71.472656 21.761719 Z M 71.472656 21.761719 " fill-opacity="1" fill-rule="nonzero"/><path fill="#bfc0c0" d="M 35.792969 17.179688 C 35.140625 17.210938 35.792969 17.273438 35.699219 17.398438 Z M 35.792969 17.179688 " fill-opacity="1" fill-rule="nonzero"/><path fill="#bfc0c0" d="M 29.472656 18.707031 L 29.785156 18.488281 L 28.820312 18.582031 Z M 29.472656 18.707031 " fill-opacity="1" fill-rule="nonzero"/><path fill="#bfc0c0" d="M 71.101562 13.160156 L 70.914062 12.882812 C 70.445312 12.945312 70.355469 13.253906 71.101562 13.160156 Z M 71.101562 13.160156 " fill-opacity="1" fill-rule="nonzero"/><path fill="#bfc0c0" d="M 97.160156 13.378906 C 97.441406 13.535156 98.1875 13.628906 98.625 13.503906 C 98.0625 13.472656 97.472656 13.378906 97.160156 13.378906 Z M 97.160156 13.378906 " fill-opacity="1" fill-rule="nonzero"/><path fill="#bfc0c0" d="M 112.636719 7.210938 L 111.640625 7.242188 L 112.105469 7.273438 Z M 112.636719 7.210938 " fill-opacity="1" fill-rule="nonzero"/></svg>